<svg width="14" height="10" viewBox="0 0 14 10" fill="none" xmlns="http://www.w3.org/2000/svg">
<path fill-rule="evenodd" clip-rule="evenodd" d="M13.139 0.245006C13.065 0.167498 12.9761 0.1058 12.8776 0.0636454C12.7791 0.0214908 12.6731 -0.000244141 12.566 -0.000244141C12.4589 -0.000244141 12.3528 0.0214908 12.2543 0.0636454C12.1559 0.1058 12.0669 0.167498 11.993 0.245006L5.21599 7.09701L2.37499 4.25001C2.30103 4.1725 2.21212 4.1108 2.11363 4.06865C2.01514 4.02649 1.90912 4.00476 1.80199 4.00476C1.69486 4.00476 1.58884 4.02649 1.49035 4.06865C1.39186 4.1108 1.30294 4.1725 1.22899 4.25001C1.15198 4.32559 1.0908 4.41577 1.04905 4.51527C1.00729 4.61477 0.985779 4.7216 0.985779 4.82951C0.985779 4.93741 1.00729 5.04424 1.04905 5.14374C1.0908 5.24324 1.15198 5.33342 1.22899 5.40901L4.64199 8.83401C4.79199 8.98501 5.01599 9.08601 5.21599 9.08601C5.43195 9.07736 5.63665 8.98733 5.78899 8.83401L13.139 1.42901C13.2946 1.27126 13.3818 1.05859 13.3818 0.837006C13.3818 0.615426 13.2946 0.402755 13.139 0.245006Z" fill="white"/>
</svg>
